<svg xmlns="http://www.w3.org/2000/svg" viewBox="0 0 72.81 84.3"><defs><style>.cls-1,.cls-10,.cls-12,.cls-2,.cls-4,.cls-5,.cls-6,.cls-7{fill:#fff;}.cls-1,.cls-10,.cls-11,.cls-12,.cls-2,.cls-3,.cls-5,.cls-6,.cls-7,.cls-8,.cls-9{stroke:#fff;}.cls-1{stroke-miterlimit:10;stroke-width:0.71px;}.cls-2{stroke-miterlimit:10;stroke-width:0.71px;}.cls-11,.cls-3,.cls-8,.cls-9{fill:none;}.cls-10,.cls-11,.cls-3,.cls-5,.cls-6,.cls-7,.cls-8,.cls-9{stroke-miterlimit:10;}.cls-3{stroke-width:2px;}.cls-5{stroke-width:2.02px;}.cls-6{stroke-width:0.71px;}.cls-7{stroke-width:1.93px;}.cls-10,.cls-11,.cls-8,.cls-9{stroke-linecap:round;}.cls-8{stroke-width:1.41px;}.cls-9{stroke-width:1.25px;}.cls-10,.cls-11{stroke-width:1.32px;}.cls-12{stroke-miterlimit:10;stroke-width:0.5px;}</style></defs><g id="Layer_2" data-name="Layer 2"><g id="Layer_1-2" data-name="Layer 1"><g id="Layer_2-2" data-name="Layer 2"><g id="icons"><g id="Drum"><polygon class="cls-1" points="42.38 38.99 42.24 41.45 23.07 40.45 23.18 38.06 42.38 38.99"/><polygon class="cls-1" points="43.12 24.57 42.48 36.93 23.3 36.01 23.93 23.64 43.12 24.57"/><polygon class="cls-1" points="43.34 20.06 43.22 22.52 24.05 21.59 24.18 19.07 43.34 20.06"/><polygon class="cls-2" points="65.59 21.61 46.41 22.54 46.28 20.07 65.47 19.08 65.59 21.61"/><polygon class="cls-2" points="66.33 36.01 47.16 36.94 46.52 24.6 65.7 23.66 66.33 36.01"/><polygon class="cls-2" points="66.56 40.46 47.4 41.45 47.27 39 66.44 38.06 66.56 40.46"/><circle id="main_drum" data-name="main drum" class="cls-3" cx="45.23" cy="63.49" r="19.47"/><circle id="main_drum_ring" data-name="main drum ring" class="cls-4" cx="45.32" cy="63.6" r="16.78"/><path id="main_drum_leg" data-name="main drum leg" class="cls-5" d="M63.6,68.82S70,78.19,70,80.14"/><circle id="main_drum_leg-2" data-name="main drum leg-2" class="cls-6" cx="70.31" cy="81.79" r="2.15"/><path id="main_drum_leg-3" data-name="main drum leg-3" class="cls-7" d="M27.32,69.76S20.93,78.29,20.9,80.1"/><circle id="main_drum_leg-4" data-name="main drum leg-4" class="cls-6" cx="20.61" cy="81.75" r="2.15"/><line id="cimbal_leg" data-name="cimbal leg" class="cls-8" x1="13.32" y1="49.27" x2="2.3" y2="60.15"/><circle id="simbal_leg" data-name="simbal leg" class="cls-6" cx="1.95" cy="60.52" r="1.59"/><line id="cymbal_leg" data-name="cymbal leg" class="cls-9" x1="25.52" y1="53.82" x2="20.72" y2="49.31"/><circle id="stand_support" data-name="stand support" class="cls-6" cx="16.83" cy="46.94" r="2.31"/><polyline id="cimbal_support" data-name="cimbal support" class="cls-10" points="8.56 54.13 16.91 51.41 25.2 53.65"/><line id="cimbal_stand" data-name="cimbal stand" class="cls-11" x1="17" y1="42.33" x2="17" y2="14.57"/><ellipse id="cimbal" class="cls-12" cx="18.74" cy="7.26" rx="5.11" ry="10.03" transform="translate(2.28 18.8) rotate(-56.19)"/></g></g></g></g></g></svg>