<svg xmlns="http://www.w3.org/2000/svg" viewBox="0 0 35.12 87.89"><defs><style>.cls-1,.cls-2{fill:#fff;}.cls-1{opacity:0.91;}</style></defs><g id="Layer_2" data-name="Layer 2"><g id="icons"><g id="Electric_guitar" data-name="Electric guitar"><path id="body" class="cls-1" d="M33,68.18A8.34,8.34,0,0,1,29.91,65a9.19,9.19,0,0,1-.14-8.49,5.74,5.74,0,0,1,2.71-3.11,2.74,2.74,0,0,0,.12-.81A2.63,2.63,0,0,0,30.66,50a8.53,8.53,0,0,1-2.85,3.45,7.53,7.53,0,0,1-4.31,1.36,7.08,7.08,0,0,1-1.13-.09,1.09,1.09,0,0,1,0,.18c0,1.59-2.12,2.88-4.73,2.88s-4.73-1.29-4.73-2.88a.82.82,0,0,1,0-.22v-6a8.67,8.67,0,0,1-4.16-7.52,9,9,0,0,1,1.34-4.77,8.58,8.58,0,0,0-5.09,8,9.26,9.26,0,0,0,.19,1.84h0A15,15,0,0,1,6.29,49,21.25,21.25,0,0,1,5.8,61.29,22.86,22.86,0,0,1,3,67a19.56,19.56,0,0,1-1.34,1.77A10.83,10.83,0,0,0,0,74.5c0,7.39,7.86,13.39,17.56,13.39s17.56-6,17.56-13.39A10.87,10.87,0,0,0,33,68.18Zm-10.83,14h-9V75.92h9Zm1.29-9.9H12v-3.1H23.5Zm0-7H12v-3.1H23.5Z"/><rect id="head" class="cls-2" x="14.98" width="5.77" height="10.42"/><rect id="neck" class="cls-2" x="15.43" y="13.17" width="4.13" height="41.66"/></g></g></g></svg>