<svg xmlns="http://www.w3.org/2000/svg" viewBox="0 0 48.81 86.7"><defs><style>.cls-1{fill:#fff;}</style></defs><g id="Layer_2" data-name="Layer 2"><g id="icons"><g id="Flute"><path id="body" class="cls-1" d="M48.62,81.7a2,2,0,0,0-1.7-.94h-.1a4.53,4.53,0,0,0-1.43.14l-.51-1a2.76,2.76,0,0,1-.48-.63,2.52,2.52,0,0,1-.28-.84L44,78.1a3.38,3.38,0,0,0,.17-.54h0a1.85,1.85,0,0,1,0-.23v0a5,5,0,0,0-.41-2.78,5.24,5.24,0,0,0-1.22-1.72h0L21.42,32a6.37,6.37,0,0,0-.5-3.78A6.1,6.1,0,0,0,17.76,25L10.59,11.16a11,11,0,0,0-.8-3.54l-7,3.46a11.18,11.18,0,0,0,2.61,2.85l7.32,14.12a6.36,6.36,0,0,0,.52,3.65,6.22,6.22,0,0,0,3,3.17L37.33,75.64a5.44,5.44,0,0,0,.43,1.56,4.88,4.88,0,0,0,2,2.27h0a3,3,0,0,1,.78.34h0a1.94,1.94,0,0,0,.33.07h0l.14.29h0a2.83,2.83,0,0,1,.5.64,2.77,2.77,0,0,1,.28.87l.47.89a5.32,5.32,0,0,0-.71.83,3.87,3.87,0,0,1-.37.69,1.91,1.91,0,0,0,0,1.64c.66,1.21,2.85,1.28,4.9.17S49.28,82.91,48.62,81.7ZM21.81,40.63a1.51,1.51,0,1,1,1.5-1.51A1.5,1.5,0,0,1,21.81,40.63Zm2.72,5.9A1.51,1.51,0,1,1,26,45,1.5,1.5,0,0,1,24.53,46.53Zm2.87,5.55a1.51,1.51,0,1,1,1.51-1.5A1.51,1.51,0,0,1,27.4,52.08Zm3,5.71a1.51,1.51,0,1,1,1.5-1.5A1.5,1.5,0,0,1,30.39,57.79Zm3,5.71A1.51,1.51,0,1,1,34.84,62,1.5,1.5,0,0,1,33.34,63.5Zm3,5.81a1.86,1.86,0,1,1,1.86-1.86A1.85,1.85,0,0,1,36.34,69.31Zm3.4,6.42a1.86,1.86,0,1,1,1.85-1.86A1.86,1.86,0,0,1,39.74,75.73Z"/><path id="head" class="cls-1" d="M9.17,6.27,2,9.8c-.17-.33-.33-.66-.47-1h0A28.49,28.49,0,0,1,.07,4.88,20.2,20.2,0,0,1,0,2.3L4.54,0A20.81,20.81,0,0,1,6.66,2c.25.35,1.25,2.09,1.86,3.15l0,0c.2.31.39.63.57,1Z"/></g></g></g></svg>