<svg xmlns="http://www.w3.org/2000/svg" viewBox="0 0 35.04 93.77"><defs><style>.cls-1{fill:#fff;}</style></defs><g id="Layer_2" data-name="Layer 2"><g id="icons"><g id="Acoustic_guitar" data-name="Acoustic guitar"><polygon id="head" class="cls-1" points="15.73 13.38 19.28 13.38 19.99 39.65 15.02 39.65 15.73 13.38"/><rect id="neck" class="cls-1" x="14.86" width="5.42" height="10.29"/><path id="body" class="cls-1" d="M32.63,70.39a10.84,10.84,0,0,1-1.78-2.2h0a16.06,16.06,0,0,1-2.25-8.38,17.44,17.44,0,0,1,.86-5.42,0,0,0,0,0,0,0A12.79,12.79,0,0,1,30,53v0a6.16,6.16,0,0,0,.26-1.82c0-5.1-5.74-9.24-12.83-9.24S4.62,46,4.62,51.14A6.81,6.81,0,0,0,4.86,53a12.91,12.91,0,0,1,.57,1.43,17,17,0,0,1,.85,5.39,15.64,15.64,0,0,1-2.7,9.07h0a9.28,9.28,0,0,0-.69.86A14.18,14.18,0,0,0,0,78.24c0,8.58,7.84,15.53,17.52,15.53S35,86.82,35,78.24A14.12,14.12,0,0,0,32.63,70.39Zm-15.17-19a7,7,0,0,1,7,7c0,.2,0,.38,0,.57a7,7,0,0,1-13.94,0c0-.19,0-.38,0-.58A7,7,0,0,1,17.46,51.35ZM25.9,81.48h-17v-3h17Z"/></g></g></g></svg>