<svg xmlns="http://www.w3.org/2000/svg" viewBox="0 0 180.14 66.88"><defs><style>.cls-1,.cls-2{fill:#231f20;}.cls-2{font-size:35px;font-family:BerlinSansFBDemi-Bold, Berlin Sans FB Demi;font-weight:700;}</style></defs><g id="Layer_2" data-name="Layer 2"><g id="Chest"><path id="lock" class="cls-1" d="M46.4,48l9.49-3.08V30.56l-9.44,3Zm2.41-10.82a2.7,2.7,0,0,1,2.36-2.94,2.7,2.7,0,0,1,2.36,2.94,3.27,3.27,0,0,1-.72,2.1l-.08,4.2-2.91.77V39.55A3.14,3.14,0,0,1,48.81,37.16Z"/><polygon id="side" class="cls-1" points="26.38 39.42 0.07 28.83 0.07 56.12 26.38 66.85 26.38 39.42"/><path id="side_top" data-name="side top" class="cls-1" d="M26.43,36.48,0,25.82A27.52,27.52,0,0,1,.83,20c.48-1.29,1.15-3.78,3-4.72a8.1,8.1,0,0,1,6-.52,20.74,20.74,0,0,1,9.24,6A26.31,26.31,0,0,1,24.57,29a26.78,26.78,0,0,1,1.66,5.39C26.33,35.24,26.43,36.48,26.43,36.48Z"/><path id="top" class="cls-1" d="M29.44,36.24,72,22.38a34.78,34.78,0,0,0-1-5.05A29.5,29.5,0,0,0,66.78,9a33.5,33.5,0,0,0-5.47-5.53A20.67,20.67,0,0,0,56.39.53,13.07,13.07,0,0,0,51.12.1L11.54,12.71s5.67,2.33,8.51,5.05a31.81,31.81,0,0,1,6.28,8.18,34.54,34.54,0,0,1,2.56,7.22C29.24,35,29.44,36.24,29.44,36.24Z"/><polygon id="front" class="cls-1" points="71.93 25.17 58.88 29.53 58.95 46.86 43.42 51.93 43.49 34.6 29.17 39.22 29.24 66.56 71.8 52.44 71.93 25.17"/><text class="cls-2" transform="translate(77.77 29.72)">Icon<tspan x="0" y="30" xml:space="preserve"> Chest </tspan></text></g></g></svg>