<svg xmlns="http://www.w3.org/2000/svg" viewBox="0 0 52.53 86.91"><defs><style>.cls-1{fill:#fff;}</style></defs><g id="Layer_2" data-name="Layer 2"><g id="icons"><g id="Microphone"><path id="mesh" class="cls-1" d="M51.87,10.79,31.17,1.32a15.24,15.24,0,0,1,20.7,9.47Z"/><path id="mesh-2" data-name="mesh" class="cls-1" d="M21.45,19.84,44.38,30.32c-4.66,6.33-8.89,3-13.74.88C25.61,29,20.1,27.93,21.45,19.84Z"/><path id="mesh-3" data-name="mesh" class="cls-1" d="M50.53,23.43a18.3,18.3,0,0,1-3,4.36l-26.28-12a16.85,16.85,0,0,1,1.22-5.14Z"/><path id="mesh-4" data-name="mesh" class="cls-1" d="M52.53,15.09A16.61,16.61,0,0,1,51.86,20L24.15,7.38A16.77,16.77,0,0,1,27.5,3.65Z"/><path id="handle" class="cls-1" d="M20.1,29.38.47,78.8S-1,81.71,1.2,83.16A30,30,0,0,0,8.47,86.8c2.18.72,3.63-2.18,3.63-2.18L37.54,37.38Z"/></g></g></g></svg>