<svg xmlns="http://www.w3.org/2000/svg" viewBox="0 0 77.66 42.13"><defs><style>.cls-1{fill:#fff;}.cls-2{fill:none;stroke:#fff;stroke-miterlimit:10;stroke-width:4px;}</style></defs><g id="Layer_2" data-name="Layer 2"><g id="icons"><g id="Piano"><path id="key" class="cls-1" d="M10.24,25.68v14.8a1.65,1.65,0,0,1-1.66,1.65H2A1.65,1.65,0,0,1,.36,40.48V8.79A1.65,1.65,0,0,1,2,7.14H6.9V25.68Z"/><path id="key-2" data-name="key" class="cls-1" d="M21.39,25.55v14.9a1.65,1.65,0,0,1-1.65,1.65H13.17a1.66,1.66,0,0,1-1.66-1.65V25.68H13.6V7.11h5.31V25.55Z"/><path id="key-3" data-name="key" class="cls-1" d="M32.6,8.76V40.45A1.66,1.66,0,0,1,31,42.1H24.37a1.65,1.65,0,0,1-1.65-1.65V25.55h2.89V7.11H31A1.66,1.66,0,0,1,32.6,8.76Z"/><path id="key-4" data-name="key" class="cls-1" d="M55,25.36V40.48a1.64,1.64,0,0,1-1.64,1.65H46.81a1.65,1.65,0,0,1-1.64-1.65v-15h1.94V7.14h5V25.36Z"/><path id="key-5" data-name="key" class="cls-1" d="M66.2,25.18V40.45a1.65,1.65,0,0,1-1.65,1.65H58a1.65,1.65,0,0,1-1.65-1.65V25.36h2.48V7.11h4.91V25.18Z"/><path id="key-6" data-name="key" class="cls-1" d="M77.4,8.76V40.45a1.65,1.65,0,0,1-1.65,1.65H69.18a1.66,1.66,0,0,1-1.66-1.65V25.18h2.89V7.11h5.34A1.65,1.65,0,0,1,77.4,8.76Z"/><path id="key-7" data-name="key" class="cls-1" d="M43.78,25.46v15a1.65,1.65,0,0,1-1.65,1.65H35.55a1.65,1.65,0,0,1-1.65-1.65V8.76a1.65,1.65,0,0,1,1.65-1.65h4.87V25.46Z"/><line id="body" class="cls-2" y1="2" x2="77.66" y2="2"/></g></g></g></svg>