<svg xmlns="http://www.w3.org/2000/svg" viewBox="0 0 61.08 86.28"><defs><style>.cls-1{fill:#fff;}</style></defs><g id="Layer_2" data-name="Layer 2"><g id="icons"><g id="Saxophone"><path id="body" class="cls-1" d="M50.56,46.52c-1.48,5.28-.82,19-.38,25.69v0c0,.78.09,1.47.13,2a11.66,11.66,0,0,1-.13,1.68,12.19,12.19,0,0,1-24,.3h-.26V50.37h9.64V73.48h0a3.24,3.24,0,0,0,0,.56,2.77,2.77,0,1,0,5.53,0,2.47,2.47,0,0,0-.06-.56h.12V53.33c.06-2.79.12-5.25.19-6.93.1-2.7.51-8.16,1.3-10.74.61-2,3.87-7.44,3.87-7.44l9.39,9.51S51.25,44.05,50.56,46.52Z"/><path id="top_piece" data-name="top piece" class="cls-1" d="M38.38,37.63a4.46,4.46,0,0,1-4.46,4.46h-.21v4.49H27.57s1.09-34.35,0-40.1c0,0,0,0-.06,0S20.9,10,18.64,10.38c-5.51.9-18.64.41-18.64.41V7s12.05.36,16.11-.27c2.53-.39,8.49-5.5,8.49-5.5A6.45,6.45,0,0,1,28.66,0c2.83,0,5.14,1.47,5.14,3.27a1.81,1.81,0,0,1-.09.61v7.93a1.49,1.49,0,0,1,.47-.07,1.6,1.6,0,1,1,0,3.2,1.49,1.49,0,0,1-.47-.07v2a1.66,1.66,0,0,1,.49-.07,1.6,1.6,0,1,1,0,3.2,1.66,1.66,0,0,1-.49-.07v2.28a1.42,1.42,0,0,1,.36,0,1.6,1.6,0,1,1,0,3.2,1.42,1.42,0,0,1-.36,0v2.21a1.42,1.42,0,0,1,.36-.05,1.61,1.61,0,0,1,0,3.21,1.42,1.42,0,0,1-.36-.05v2.56h.21A4.46,4.46,0,0,1,38.38,37.63Z"/><rect id="opening" class="cls-1" x="44.71" y="27.12" width="18.37" height="4.69" rx="2.35" transform="translate(36.62 -29.48) rotate(45)"/></g></g></g></svg>