<svg id="Layer_1" data-name="Layer 1" xmlns="http://www.w3.org/2000/svg" viewBox="0 0 51.19 82.53"><defs><style>.cls-1{fill:#fff;}</style></defs><g id="Layer_2" data-name="Layer 2"><g id="icons"><g id="Speaker"><path id="speaker_box" data-name="speaker box" class="cls-1" d="M40.33,0H10.86A10.9,10.9,0,0,0,0,10.86V71.67A10.9,10.9,0,0,0,10.86,82.53H40.33A10.9,10.9,0,0,0,51.19,71.67V10.86A10.9,10.9,0,0,0,40.33,0Zm-15,7.14A13.5,13.5,0,1,1,11.79,20.63,13.49,13.49,0,0,1,25.33,7.14h0Zm0,66.86A17.77,17.77,0,1,1,43.1,56.21,17.78,17.78,0,0,1,25.34,74Z"/><circle id="big_speaker" data-name="big speaker" class="cls-1" cx="25.12" cy="20.79" r="10.35"/><circle id="small_speaker" data-name="small speaker" class="cls-1" cx="25.19" cy="56.32" r="14.06"/></g></g></g></svg>