<svg xmlns="http://www.w3.org/2000/svg" viewBox="0 0 84.43 37.67"><defs><style>.cls-1{fill:#fff;}</style></defs><g id="Layer_2" data-name="Layer 2"><g id="icons"><path id="Trumpet" class="cls-1" d="M80.74,0h-.61a3.7,3.7,0,0,0-3.69,3.69v.72l-12,6.9L59,14.45H42.75V9.76a2.44,2.44,0,0,0,1.53-.69A2.38,2.38,0,0,0,42.59,5H39.21a2.38,2.38,0,0,0-.46,4.72v4.73h-8V9.59a2.42,2.42,0,0,0,1.38-.68,2.38,2.38,0,0,0-1.68-4.07H27.06a2.38,2.38,0,0,0-1.68.7,2.42,2.42,0,0,0-.7,1.69,2.39,2.39,0,0,0,2.08,2.36v4.86H18.45V9.35a2.33,2.33,0,0,0,1.3-.67,2.38,2.38,0,0,0-1.68-4.06H14.69a2.41,2.41,0,0,0-1.69.7,2.38,2.38,0,0,0,1.45,4v5.08H4.77V13.3A2.39,2.39,0,0,0,0,13.3v9.38a2.4,2.4,0,0,0,2.39,2.39,2.39,2.39,0,0,0,2.38-2.39V22.3h3.8a7.12,7.12,0,0,0-.26,1.92v3.23a7,7,0,0,0,7,7H42.51a7,7,0,0,0,7-7V24.22a6.75,6.75,0,0,0-.27-1.92h9.31l5.92,3.42,12,6.9V34a3.69,3.69,0,0,0,3.69,3.69h.61A3.69,3.69,0,0,0,84.43,34V3.69A3.69,3.69,0,0,0,80.74,0ZM46.44,26.85a4.25,4.25,0,0,1-4.25,4.24H15.47a4.26,4.26,0,0,1-4.25-4.24V23c0-.24,0-.48,0-.72H46.4a5.79,5.79,0,0,1,0,.72Z"/></g></g></svg>