<svg xmlns="http://www.w3.org/2000/svg" viewBox="0 0 32.54 87.06"><defs><style>.cls-1,.cls-2{fill:#fff;}.cls-1,.cls-2,.cls-3{stroke:#fff;stroke-miterlimit:10;}.cls-1{stroke-width:0.7px;}.cls-2{stroke-width:0.62px;}.cls-3{fill:none;stroke-width:1.4px;}</style></defs><g id="Layer_2" data-name="Layer 2"><g id="icons"><g id="Violin"><path id="body" class="cls-1" d="M29.26,67.2a11.67,11.67,0,0,1-1.84-1.67l0,0a11.94,11.94,0,0,1-1.8-13.07,11.66,11.66,0,0,1,2.57-3.52A8.76,8.76,0,0,0,29,45.3c0-4.19-2.95-7.82-7.22-9.54a5.13,5.13,0,0,1,.6,2.39V48a5.72,5.72,0,0,1-5.93,5.46A5.72,5.72,0,0,1,10.47,48V38.15a5.08,5.08,0,0,1,.74-2.63c-4.62,1.6-7.86,5.37-7.86,9.78A9.22,9.22,0,0,0,4.6,49.87,10.82,10.82,0,0,1,6,51.79,11.84,11.84,0,0,1,7.75,58,11.81,11.81,0,0,1,4.9,65.69a10.85,10.85,0,0,1-1.8,1.72,10.55,10.55,0,0,0-2.75,7C.35,80.61,6.27,85.78,14,86.65v-13h4.24v13c7.88-.74,14-6,14-12.31A10.58,10.58,0,0,0,29.26,67.2Zm-8.72-2.09H11.41V61.9h9.13Z"/><polygon id="neck" class="cls-2" points="18.78 50.1 13.81 50.1 14.88 17.66 17.66 17.66 18.78 50.1"/><rect id="head" class="cls-1" x="14.36" y="0.35" width="3.37" height="15.5"/><line id="tuning_peg" data-name="tuning peg" class="cls-3" x1="10.59" y1="8.17" x2="21.74" y2="8.17"/><line id="tuning_peg-2" data-name="tuning peg" class="cls-3" x1="10.55" y1="12.92" x2="21.69" y2="12.92"/></g></g></g></svg>