<svg xmlns="http://www.w3.org/2000/svg" viewBox="0 0 78.37 61.95"><defs><style>.cls-1{fill:#fff;}.cls-2{fill:none;stroke:#fff;stroke-linecap:round;stroke-miterlimit:10;stroke-width:3.61px;}</style></defs><g id="Layer_2" data-name="Layer 2"><g id="icons"><g id="Xylophone"><path id="pin" class="cls-1" d="M0,7.67V50.81H8.35V7.67ZM4.27,43.11A2.23,2.23,0,1,1,6.5,40.89,2.22,2.22,0,0,1,4.27,43.11ZM4.3,20a2.23,2.23,0,1,1,2.22-2.23A2.23,2.23,0,0,1,4.3,20Z"/><path id="pin-2" data-name="pin" class="cls-1" d="M9.88,8.74V49.51h8.35V8.74Zm4.34,33.45A2.23,2.23,0,1,1,16.45,40,2.23,2.23,0,0,1,14.22,42.19Zm.13-21.47a2.23,2.23,0,1,1,2.23-2.22A2.23,2.23,0,0,1,14.35,20.72Z"/><path id="pin-3" data-name="pin" class="cls-1" d="M20.08,9.74V48.59h8.36V9.74Zm4.17,31.83a2.23,2.23,0,1,1,2.22-2.23A2.23,2.23,0,0,1,24.25,41.57Zm.12-20.29a2.23,2.23,0,1,1,2.23-2.23A2.23,2.23,0,0,1,24.37,21.28Z"/><path id="pin-4" data-name="pin" class="cls-1" d="M30.11,10.85V47.57h8.35V10.85Zm4,6.72a2.23,2.23,0,1,1-2.23,2.23A2.23,2.23,0,0,1,34.08,17.57Zm.18,23.19a2.23,2.23,0,1,1,2.23-2.22A2.23,2.23,0,0,1,34.26,40.76Z"/><path id="pin-5" data-name="pin" class="cls-1" d="M40,11.87V46.64h8.35V11.87Zm4.18,28.46a2.23,2.23,0,1,1,2.23-2.22A2.23,2.23,0,0,1,44.22,40.33Zm0-17.44a2.23,2.23,0,1,1,2.23-2.23A2.23,2.23,0,0,1,44.22,22.89Z"/><path id="pin-6" data-name="pin" class="cls-1" d="M50,12.89V45.62h8.36V12.89Zm4.29,6.29A2.23,2.23,0,1,1,52,21.41,2.23,2.23,0,0,1,54.25,19.18Zm.06,20.16a2.23,2.23,0,1,1,2.23-2.22A2.23,2.23,0,0,1,54.31,39.34Z"/><path id="pin-7" data-name="pin" class="cls-1" d="M60.08,14V44.41h8.35V14Zm4.19,24.66a2.23,2.23,0,1,1,2.22-2.23A2.23,2.23,0,0,1,64.27,38.66Zm.06-14.29a2.23,2.23,0,1,1,2.23-2.23A2.22,2.22,0,0,1,64.33,24.37Z"/><path id="pin-8" data-name="pin" class="cls-1" d="M70,15.12V43.58h8.35V15.12Zm4.21,5.42A2.23,2.23,0,1,1,72,22.76,2.22,2.22,0,0,1,74.23,20.54Zm.06,17.32a2.23,2.23,0,1,1,2.23-2.23A2.22,2.22,0,0,1,74.29,37.86Z"/><line id="mallet_handle" data-name="mallet handle" class="cls-2" x1="14.66" y1="1.82" x2="56.86" y2="4.52"/><line id="mallet_handle-2" data-name="mallet handle" class="cls-2" x1="63.94" y1="53.76" x2="22.14" y2="56.47"/><circle id="mallet_head" data-name="mallet head" class="cls-1" cx="19.21" cy="56.94" r="5.01"/><circle id="mallet_head-2" data-name="mallet head" class="cls-1" cx="59.01" cy="5.01" r="5.01"/></g></g></g></svg>